<?xml version="1.0" encoding="UTF-8" standalone="no"?>
<!-- Created with Inkscape (http://www.inkscape.org/) -->

<svg
   width="90.708664"
   height="90.708664"
   viewBox="0 0 24 24"
   version="1.1"
   id="svg16373"
   inkscape:version="1.1.1 (3bf5ae0d25, 2021-09-20)"
   sodipodi:docname="logo-alone.svg"
   inkscape:export-filename="/home/josneth/logo.png"
   inkscape:export-xdpi="730.37201"
   inkscape:export-ydpi="730.37201"
   xmlns:inkscape="http://www.inkscape.org/namespaces/inkscape"
   xmlns:sodipodi="http://sodipodi.sourceforge.net/DTD/sodipodi-0.dtd"
   xmlns="http://www.w3.org/2000/svg"
   xmlns:svg="http://www.w3.org/2000/svg">
  <sodipodi:namedview
     id="namedview16375"
     pagecolor="#ffffff"
     bordercolor="#666666"
     borderopacity="1.0"
     inkscape:pageshadow="2"
     inkscape:pageopacity="0.0"
     inkscape:pagecheckerboard="0"
     inkscape:document-units="px"
     showgrid="false"
     units="px"
     showguides="false"
     inkscape:guide-bbox="true"
     inkscape:zoom="3.0206596"
     inkscape:cx="38.236681"
     inkscape:cy="50.485661"
     inkscape:window-width="1024"
     inkscape:window-height="568"
     inkscape:window-x="0"
     inkscape:window-y="0"
     inkscape:window-maximized="1"
     inkscape:current-layer="layer1"
     inkscape:snap-global="true"
     inkscape:snap-page="true">
    <sodipodi:guide
       position="0,24"
       orientation="0,90.708664"
       id="guide16434" />
    <sodipodi:guide
       position="24,24"
       orientation="90.708664,0"
       id="guide16436" />
    <sodipodi:guide
       position="24,0"
       orientation="0,-90.708664"
       id="guide16438" />
    <sodipodi:guide
       position="0.10724902,27.712565"
       orientation="-90.708664,0"
       id="guide16440" />
    <inkscape:grid
       type="xygrid"
       id="grid16442"
       empspacing="4"
       spacingx="1.0583333"
       spacingy="1.0583333" />
    <sodipodi:guide
       position="10.791288,7.294348"
       orientation="1,0"
       id="guide45299" />
    <sodipodi:guide
       position="2.2703616,8.428125"
       orientation="1,0"
       id="guide45301" />
  </sodipodi:namedview>
  <defs
     id="defs16370" />
  <g
     inkscape:label="Layer 1"
     inkscape:groupmode="layer"
     id="layer1">
    <rect
       style="fill:#f8f9fa;fill-opacity:1;stroke:#fefeff;stroke-width:0.13126;stroke-linecap:square;paint-order:stroke fill markers"
       id="rect45665"
       width="24"
       height="24"
       x="1.110223e-16"
       y="1.9984014e-15" />
    <path
       id="text2414"
       style="font-weight:bold;font-size:11.4934px;line-height:1.75;font-family:'TT Norms';-inkscape-font-specification:'TT Norms Bold';word-spacing:0px;stroke-width:0.0527582;fill:#212529;fill-opacity:1"
       d="m 5.4913534,7.2943442 c -0.460185,0 -0.89198,0.072607 -1.2960448,0.2129071 C 3.7912436,7.6531636 3.4766939,7.8106969 3.2522135,7.979057 3.0221213,8.1530294 2.8146366,8.3493724 2.6238281,8.5738529 2.4330199,8.7983333 2.315185,8.9496654 2.2646769,9.0394576 2.214169,9.1292498 2.1749871,9.2023729 2.152539,9.252881 l 2.1884971,0.976168 0.089917,-0.128674 c 0.05612,-0.08979 0.1459148,-0.1742023 0.280603,-0.2583824 0.1346883,-0.08418 0.2804909,-0.1291911 0.4320151,-0.1291911 0.1908083,0 0.34768,0.050912 0.4599202,0.1519286 0.1178523,0.1010163 0.1741496,0.2184069 0.1741496,0.3643189 0,0.202032 -0.1179071,0.398892 -0.3648356,0.595313 -0.2413164,0.202032 -0.5330661,0.415273 -0.8753988,0.639754 -0.3367207,0.22448 -0.6788658,0.49343 -1.0268106,0.807702 -0.3423327,0.314273 -0.6340824,0.757727 -0.8753988,1.330152 -0.2413164,0.572425 -0.3648356,1.22912 -0.3648356,1.969905 h 6.2683511 v -0.01654 h 2.2525753 v 1.150317 h 2.586922 v -1.150317 h 0.539502 v 1.150317 h 2.581755 v -1.952848 l 0.690397,-0.864547 1.784387,2.817399 h 2.87321 L 18.856429,11.991732 21.617501,8.6580852 H 18.75566 L 16.499467,11.419157 V 8.6580852 H 13.917712 V 13.428337 H 13.37821 V 8.6580852 H 10.617139 L 7.3568725,13.158586 H 5.9517903 c 0.1122402,-0.134688 0.2914676,-0.285803 0.532784,-0.448551 0.2413167,-0.157137 0.4772856,-0.320354 0.701766,-0.477491 0.2244805,-0.157136 0.4488635,-0.336436 0.673344,-0.538468 0.2244804,-0.202032 0.3986125,-0.448843 0.5333008,-0.751892 0.1346882,-0.303049 0.2020548,-0.634197 0.2020548,-1.0045901 0,-0.7407857 -0.2864371,-1.3636111 -0.8588623,-1.8743043 C 7.1637523,7.5525966 6.4173352,7.2943442 5.4913534,7.2943442 Z m 5.2999346,4.3547738 v 1.779219 H 9.584644 Z" />
    <text
       xml:space="preserve"
       style="font-weight:bold;font-size:4.7625px;line-height:1.75;font-family:'Open Sans';-inkscape-font-specification:'Open Sans Bold';word-spacing:0px;stroke-width:0.264583"
       x="5.316597"
       y="17.084496"
       id="text33763"><tspan
         sodipodi:role="line"
         id="tspan33761"
         style="stroke-width:0.264583"></tspan></text>
    <text
       xml:space="preserve"
       style="font-weight:bold;font-size:4.7625px;line-height:1.75;font-family:'Open Sans';-inkscape-font-specification:'Open Sans Bold';word-spacing:0px;stroke-width:0.264583"
       x="3.4781175"
       y="18.222755"
       id="text37119"><tspan
         sodipodi:role="line"
         id="tspan37117"
         style="stroke-width:0.264583"></tspan></text>
  </g>
</svg>
